<svg id="圖層_1" data-name="圖層 1" xmlns="http://www.w3.org/2000/svg" viewBox="0 0 4277.6 1729.27"><defs><style>.cls-1{fill:none;}.cls-1,.cls-2,.cls-3{stroke:#fff;stroke-miterlimit:10;}.cls-1,.cls-3{stroke-width:30px;}.cls-2{fill:#fff;}.cls-3{fill:#231815;}</style></defs><title>devices3</title><line class="cls-1" x1="2255.85" y1="1490.62" x2="1433.67" y2="1490.62"/><path class="cls-1" d="M781.42,786.6V131a26.4,26.4,0,0,1,26.4-26.39H3093.25a26.4,26.4,0,0,1,26.4,26.39V804.39" transform="translate(-39.45 -89.63)"/><path class="cls-1" d="M2889.71,1334.34V864.83a26.4,26.4,0,0,1,26.4-26.4H3557.4a26.4,26.4,0,0,1,26.39,26.4V1777.5a26.4,26.4,0,0,1-26.39,26.4H2991.59" transform="translate(-39.45 -89.63)"/><rect class="cls-1" x="3612.15" y="1120.7" width="409.47" height="569.57" rx="26.4"/><rect class="cls-1" x="75.99" y="683.79" width="1331.98" height="924.6" rx="26.4"/><path class="cls-1" d="M3009.29,1669.71a11,11,0,0,0-.41-2.21l-73.33-246.8a68.14,68.14,0,0,0-67.89-62.47H2438.09a68.15,68.15,0,0,0-67.77,61l-73.77,248.27a10.36,10.36,0,0,0-.4,2.21c-5.29,71.58,14.29,97.62,54.7,120.67l1.7,1c40.62,23.16,91.92,8.27,114.57-33.26l50.26-92.15h270.67l50.26,92.15c22.66,41.53,74,56.42,114.57,33.26l1.71-1C2995,1767.33,3014.58,1741.29,3009.29,1669.71Z" transform="translate(-39.45 -89.63)"/><line class="cls-1" x1="1483.95" y1="1708.27" y2="1708.27"/><circle class="cls-2" cx="3203.77" cy="1013.15" r="23.86"/><circle class="cls-1" cx="3212.42" cy="1395.31" r="206.11"/><circle class="cls-2" cx="3816.88" cy="1584.53" r="23.86"/><circle class="cls-2" cx="4157.05" cy="1673.27" r="23.86"/><circle class="cls-2" cx="4253.24" cy="1673.27" r="23.86"/><line class="cls-1" x1="2522.29" y1="1439.24" x2="2397.61" y2="1439.24"/><ellipse class="cls-3" cx="2772.22" cy="1439.24" rx="19.79" ry="21.5"/><line class="cls-1" x1="2458.6" y1="1493.46" x2="2458.6" y2="1385.02"/></svg>