<svg id="圖層_1" data-name="圖層 1" xmlns="http://www.w3.org/2000/svg" viewBox="0 0 4277.6 1727.64"><defs><style>.cls-1{fill:#fff;}.cls-1,.cls-2,.cls-3,.cls-4{stroke:#231815;stroke-miterlimit:10;}.cls-1,.cls-2,.cls-4{stroke-width:30px;}.cls-2{fill:none;}.cls-3,.cls-4{fill:#231815;}</style></defs><title>devices</title><rect class="cls-1" x="741.98" y="15" width="2338.23" height="1475.62" rx="26.4"/><rect class="cls-1" x="2850.27" y="724.81" width="694.08" height="965.46" rx="26.4"/><rect class="cls-1" x="3612.15" y="1120.7" width="409.47" height="569.57" rx="26.4"/><rect class="cls-1" x="75.99" y="724.81" width="1331.98" height="852.23" rx="26.4"/><path class="cls-1" d="M3009.29,1669.71a11,11,0,0,0-.41-2.21l-73.33-246.8a68.14,68.14,0,0,0-67.89-62.47H2438.09a68.15,68.15,0,0,0-67.77,61l-73.77,248.27a10.36,10.36,0,0,0-.4,2.21c-5.29,71.58,14.29,97.62,54.7,120.67l1.7,1c40.62,23.16,91.92,8.27,114.57-33.26l50.26-92.15h270.67l50.26,92.15c22.66,41.53,74,56.42,114.57,33.26l1.71-1C2995,1767.33,3014.58,1741.29,3009.29,1669.71Z" transform="translate(-39.45 -89.63)"/><line class="cls-2" x1="1483.95" y1="1690.27" y2="1690.27"/><circle class="cls-3" cx="3203.77" cy="992.15" r="23.86"/><circle class="cls-1" cx="3212.42" cy="1374.31" r="206.11"/><circle class="cls-3" cx="3816.88" cy="1584.53" r="23.86"/><circle class="cls-3" cx="4157.05" cy="1673.27" r="23.86"/><circle class="cls-3" cx="4253.24" cy="1673.27" r="23.86"/><line class="cls-2" x1="2511.94" y1="1439.24" x2="2387.27" y2="1439.24"/><ellipse class="cls-4" cx="2772.22" cy="1439.24" rx="19.79" ry="21.5"/><line class="cls-2" x1="2467.6" y1="1493.46" x2="2467.6" y2="1385.02"/></svg>